<?xml version="1.0" encoding="utf-8"?>
<!-- Generator: Adobe Illustrator 21.1.0, SVG Export Plug-In . SVG Version: 6.00 Build 0)  -->
<svg version="1.1" id="Layer_1" xmlns="http://www.w3.org/2000/svg" xmlns:xlink="http://www.w3.org/1999/xlink" x="0px" y="0px"
	 viewBox="0 0 46.2 67.4" style="enable-background:new 0 0 46.2 67.4;" xml:space="preserve">
<style type="text/css">
	.st0{fill:#FFFFFF;}
</style>
<g>
	<path class="st0" d="M15.3,43.9c0-0.3-0.1-0.5-0.2-0.6c-0.2-0.1-0.4-0.2-0.7-0.2c-0.3,0-0.5,0.1-0.7,0.2c-0.2,0.1-0.2,0.3-0.2,0.6
		v10c0,0.3,0.1,0.5,0.2,0.6c0.2,0.1,0.4,0.2,0.7,0.2c0.3,0,0.5-0.1,0.7-0.2c0.2-0.1,0.2-0.3,0.2-0.6v-3.4h2.8v3.9
		c0,0.4-0.1,0.8-0.2,1.1c-0.1,0.3-0.3,0.6-0.6,0.8c-0.3,0.2-0.6,0.4-1.1,0.5c-0.5,0.1-1.1,0.2-1.8,0.2c-0.8,0-1.4-0.1-1.8-0.2
		c-0.5-0.1-0.8-0.3-1.1-0.5c-0.3-0.2-0.5-0.5-0.6-0.8c-0.1-0.3-0.2-0.7-0.2-1.1v-11c0-0.4,0.1-0.8,0.2-1.1c0.1-0.3,0.3-0.6,0.6-0.8
		c0.3-0.2,0.6-0.4,1.1-0.5c0.5-0.1,1.1-0.2,1.8-0.2c0.8,0,1.4,0.1,1.8,0.2c0.5,0.1,0.9,0.3,1.1,0.5c0.3,0.2,0.5,0.5,0.6,0.8
		c0.1,0.3,0.2,0.7,0.2,1.1v3.7h-2.8V43.9z"/>
	<path class="st0" d="M19.4,41H24c0.4,0,0.8,0,1.1,0.1c0.3,0.1,0.6,0.2,0.9,0.4s0.4,0.4,0.6,0.8c0.1,0.3,0.2,0.7,0.2,1.2V47
		c0,0.4-0.1,0.8-0.3,1c-0.2,0.2-0.4,0.4-0.6,0.5v0.2c0.2,0.1,0.4,0.2,0.7,0.4c0.2,0.2,0.4,0.5,0.4,0.9v4.3c0,0.5-0.1,0.9-0.2,1.2
		c-0.1,0.3-0.3,0.6-0.6,0.8c-0.2,0.2-0.5,0.3-0.9,0.4c-0.3,0.1-0.7,0.1-1.2,0.1h-4.6V41z M23.5,47.4c0.1,0,0.2,0,0.3-0.1
		c0.1-0.1,0.1-0.2,0.1-0.5V44c0-0.2-0.1-0.4-0.2-0.4c-0.1-0.1-0.3-0.1-0.4-0.1h-1.2v3.9H23.5z M23.4,54.3c0.2,0,0.3,0,0.4-0.1
		c0.1-0.1,0.2-0.2,0.2-0.4v-3.5c0-0.2-0.1-0.3-0.2-0.3c-0.1-0.1-0.2-0.1-0.4-0.1h-1.4v4.5H23.4z"/>
	<path class="st0" d="M32.7,43.7c0-0.4-0.3-0.5-0.9-0.5c-0.6,0-1,0.2-1,0.5v1.6c0,0.3,0,0.5,0.1,0.6c0.1,0.1,0.1,0.2,0.2,0.3
		l3.4,3.1c0.3,0.3,0.5,0.5,0.7,0.9c0.2,0.3,0.3,0.8,0.3,1.4v2.7c0,1-0.3,1.7-0.9,2.1c-0.6,0.4-1.5,0.6-2.9,0.6c-0.7,0-1.3,0-1.7-0.1
		c-0.5-0.1-0.9-0.2-1.2-0.5c-0.3-0.2-0.5-0.5-0.7-0.9C28,55.2,28,54.8,28,54.3v-3.6h2.8V54c0,0.2,0.1,0.4,0.3,0.5
		c0.2,0.1,0.4,0.1,0.8,0.1c0.3,0,0.5,0,0.7-0.1c0.2-0.1,0.3-0.3,0.3-0.5v-2.1c0-0.2,0-0.4-0.1-0.5c0-0.1-0.1-0.2-0.2-0.3l-3.2-2.8
		c-0.4-0.3-0.7-0.7-0.9-1.1c-0.2-0.4-0.3-0.9-0.3-1.6v-2c0-1,0.3-1.7,0.9-2.1c0.6-0.4,1.5-0.6,2.9-0.6c1.4,0,2.3,0.2,2.9,0.6
		c0.5,0.4,0.8,1.1,0.8,2v3h-2.8V43.7z"/>
</g>
<g>
	<path class="st0" d="M13.7,15.3c1.1,0.7,2.2,1.4,3.3,2.1l0-0.1l-1.8-4.2c-0.3-0.8-0.7-1.6-1-2.4h-3.5v3.2c0.2-0.1,0.4-0.2,0.6-0.2
		C12.5,13.5,12.7,14.9,13.7,15.3"/>
	<path class="st0" d="M21.4,29.4l-1.4-4l-1.8-4.5L17.9,20L17,19.4L12.9,17c-0.6-0.5-1.5-0.6-1.9-1.2c-0.1-0.1-0.2-0.3-0.3-0.4v20
		h12.7l0-0.2L21.4,29.4"/>
	<path class="st0" d="M18.4,18c0.2,0.9,1.1,1.1,1.7,1.6c2.3,1.6,4.7,3.3,7,5c0,0,0,0,0.1,0.1l0,0c0,0,0-2,0.1-3.3
		c-0.1-2.6-0.3-6.2-0.8-8.4c-0.3-0.6-0.6-1.2-0.5-1.9c0-0.1,0-0.3,0-0.4h-10c0.1,0.3,0.2,0.7,0.3,1C17,13.7,17.6,15.9,18.4,18"/>
	<path class="st0" d="M28.3,11.5c0.3,0.8,0.1,1.5,0.1,2.3c0.1,2.2,0.2,4.5-0.2,6.7C28.2,22,28,23.5,28,25c0,0,0,0.1,0,0.2
		c0.1,0.1,0.2,0.1,0.2,0.2l0.1,0l1.2-3.5l1.4-4.8c0.4-1.8,1.1-3.6,1.2-5.4c-0.2-0.3-0.3-0.7-0.3-1.1h-3.4
		C28.3,10.9,28.3,11.2,28.3,11.5"/>
	<path class="st0" d="M27.3,28.1l0-2c-0.1-0.1-0.2-0.1-0.2-0.2c-2.1-1.5-4.3-2.9-6.5-4.3c-0.2,0-0.1,0.2-0.2,0.3
		C21,26,22.5,30,23.8,34.1c0.2,0.5,0.3,0.9,0.4,1.4h0.7c0.7-2.1,1.4-4.2,2.1-6.3C27.1,28.8,27.2,28.5,27.3,28.1"/>
	<path class="st0" d="M34.3,10.6c0,0,0,0.1,0,0.1c-0.4,1.7-0.9,3.4-1.7,5c-0.5,1.1-0.9,2.4-1.3,3.5c-0.7,1-1.1,2.2-1.5,3.3l-1.2,3.2
		c0.3,0.3,0.6,0.5,0.9,0.8c2,1.5,3.9,3.1,5.7,4.7c0.1,0.1,0.2,0.3,0.4,0.4V10.6H34.3"/>
	<path class="st0" d="M27.3,30.1l-0.5,1.4c-0.5,1.4-0.9,2.7-1.3,4h1.6L27.3,30.1L27.3,30.1"/>
	<path class="st0" d="M29.7,27.7c-0.6-0.4-0.6-0.4-0.7-0.5c0,0,0,0,0,0c-0.1,0-0.1-0.1-0.2-0.1c0,0,0,0,0,0c0,0-0.1-0.1-0.2-0.1
		c0,0,0,0.2-0.1,0.2c-0.1,0.2-0.2,0.4-0.2,0.4c-0.1,0.2-0.2,0.4-0.2,0.6c0,0.2,0,0.5,0,0.7c0,1.5-0.2,4.1-0.1,4.3c0,0,0,1.5-0.1,2.4
		h7.7v-3.8l-0.2,0C33.5,30.4,31.6,29,29.7,27.7"/>
</g>
</svg>
